<svg width="183" height="163" viewBox="0 0 183 163" fill="none" xmlns="http://www.w3.org/2000/svg">
<path d="M20.94 44.48H6.84V6.04001H112.22C114.45 6.04001 116.65 6.15 118.82 6.37C151.37 9.68 176.76 37.16 176.76 70.58C176.76 104 151.36 131.48 118.82 134.79H70.04V156.52L18.89 114.94L70.21 70.42L70.04 96.36H117.07C117.07 96.36 139.51 94.55 139.51 70.59C139.51 46.63 117.07 44.48 117.07 44.48H59.53" fill="#36C2DA"/>
<path d="M70.04 162.52C68.69 162.52 67.34 162.06 66.25 161.18L15.1 119.6C13.72 118.48 12.91 116.81 12.89 115.04C12.87 113.27 13.62 111.57 14.96 110.41L66.28 65.89C68.06 64.35 70.58 63.99 72.72 64.97C74.86 65.95 76.23 68.1 76.21 70.46L76.08 90.36H116.77C119.17 90.09 133.51 87.74 133.51 70.59C133.51 53.44 119.35 50.83 116.72 50.49H59.54C56.23 50.49 53.54 47.8 53.54 44.49C53.54 41.18 56.23 38.49 59.54 38.49H117.08C117.27 38.49 117.46 38.49 117.65 38.52C127.29 39.44 145.52 47.33 145.52 70.6C145.52 99.76 117.84 102.33 117.56 102.35C117.4 102.36 117.24 102.37 117.08 102.37H70.05C68.45 102.37 66.92 101.73 65.79 100.6C64.66 99.47 64.04 97.93 64.05 96.33L64.13 83.65L28.22 114.8L64.04 143.92V134.8C64.04 131.49 66.73 128.8 70.04 128.8H118.51C148.32 125.62 170.76 100.65 170.76 70.59C170.76 40.53 148.17 15.39 118.21 12.35C116.24 12.15 114.22 12.05 112.22 12.05H12.84V38.49H20.94C24.25 38.49 26.94 41.18 26.94 44.49C26.94 47.8 24.25 50.49 20.94 50.49H6.84C3.53 50.49 0.839996 47.8 0.839996 44.49V6.04999C0.839996 2.73999 3.53 0.0499878 6.84 0.0499878H112.22C114.63 0.0499878 117.05 0.170004 119.43 0.410004C155.54 4.08 182.77 34.25 182.77 70.59C182.77 106.93 155.54 137.1 119.43 140.77C119.23 140.79 119.03 140.8 118.82 140.8H76.04V156.53C76.04 158.84 74.71 160.95 72.62 161.95C71.8 162.34 70.92 162.53 70.04 162.53V162.52Z" fill="black"/>
</svg>
