<svg width="233" height="233" viewBox="0 0 233 233" fill="none" xmlns="http://www.w3.org/2000/svg">
<path d="M120.18 227.27C179.319 227.27 227.26 179.329 227.26 120.19C227.26 61.0513 179.319 13.11 120.18 13.11C61.0413 13.11 13.1 61.0513 13.1 120.19C13.1 179.329 61.0413 227.27 120.18 227.27Z" fill="white"/>
<path d="M116.29 176.7C110.57 176.7 107.18 174.97 106.68 173.8C106.19 172.62 106.26 170.6 106.33 168.64C106.49 163.96 106.8 155.24 95.73 153.57L93.99 153.31L92.62 154.42C91.07 155.68 89.67 157.11 88.31 158.5C85.75 161.13 83.32 163.62 81.01 163.62C80.06 163.62 78.95 163.22 77.71 162.44C75.7 161.17 70.18 155.18 69.44 153.24C68.94 149.13 70.73 147.2 73.66 144.41C76.01 142.17 79.23 139.1 78.31 134.35C76.75 126.36 69.57 126.36 66.11 126.36H64.36C60.65 126.36 58.68 126.04 57.48 124.17C55.83 121.59 55.89 109.73 57.57 107.47C58.29 106.66 59.56 106.32 61.93 106.32C62.72 106.32 63.52 106.36 64.32 106.39C65.21 106.43 66.09 106.46 66.93 106.46C69.13 106.46 74.96 106.46 77.44 100.68C80.82 92.8 75.37 88.57 72.44 86.3C71.32 85.43 70.04 84.44 69.71 83.7C68.35 80.69 70.18 77.29 71.04 75.97C73.59 72.02 78.12 69.15 81.82 69.15C82.47 69.15 83.09 69.24 83.66 69.41C84.2 69.64 85.49 71.19 86.26 72.12C88.49 74.8 91.53 78.46 96.24 78.46C98.44 78.46 100.65 77.63 102.82 76C106.51 73.22 106.48 68.48 106.45 64.3C106.41 57.75 107.05 56.77 109.62 56.37C110.78 56.19 113.27 56.07 115.97 56.07C118.67 56.07 121.1 56.19 122.23 56.36C125.28 56.84 126.55 58.6 126.51 68.25C126.51 69.72 126.5 71.11 126.57 72.42L126.68 74.35L128.26 75.46C130.86 77.29 133.28 78.17 135.66 78.17C140.11 78.17 142.97 75.12 145.26 72.66C147.55 70.2 149.08 68.7 151.36 68.7H151.55C155.01 68.82 163.39 77.43 163.35 80.82C163.33 82.87 161.78 84.44 159.25 86.79C156.49 89.35 152.7 92.86 153.86 98.2C155.65 106.4 162.94 106.4 165.69 106.4C166.36 106.4 167.04 106.38 167.73 106.36C168.36 106.34 168.99 106.33 169.62 106.33C172.26 106.33 173.59 106.66 174.36 107.5C176.87 110.27 177.23 121.17 174.92 124.4C173.92 125.8 172.22 126.3 168.43 126.3C167.97 126.3 167.52 126.3 167.06 126.29C166.59 126.29 166.12 126.28 165.66 126.28C163.09 126.28 158.31 126.28 155.62 130.1C150.6 137.22 156.1 142.49 159.39 145.64C163.56 149.63 164.39 150.99 162.39 154.17C161.52 155.38 155.37 161.55 154.1 162.46C152.99 163.15 151.97 163.53 151.12 163.53C149.28 163.53 147.45 161.52 145.52 159.4C143.08 156.72 140.32 153.69 136.18 153.69C135.65 153.69 135.11 153.74 134.59 153.85C126.2 155.54 126.26 162.9 126.3 167.3C126.33 171.01 126.24 173.37 124.63 174.85C123.81 175.61 120.67 176.68 116.27 176.68L116.29 176.7Z" fill="#B5B5B6"/>
<path d="M115.99 60.08C118.99 60.08 121.01 60.23 121.63 60.32C121.72 60.33 121.79 60.35 121.84 60.36C122.55 61.72 122.53 66.09 122.53 68.24C122.53 69.71 122.52 71.22 122.6 72.66L122.82 76.52L125.98 78.74C129.27 81.06 132.45 82.18 135.68 82.18C141.87 82.18 145.68 78.1 148.2 75.4C149.29 74.23 150.52 72.92 151.22 72.73C153.62 73.61 158.4 78.49 159.31 80.94C158.95 81.64 157.41 83.07 156.55 83.86C153.47 86.71 148.32 91.48 149.97 99.05C151.1 104.23 154.74 110.4 165.71 110.4C166.41 110.4 167.13 110.38 167.85 110.36C168.44 110.34 169.04 110.33 169.63 110.33C170.62 110.33 171.19 110.38 171.51 110.44C172.67 112.88 172.81 119.73 171.7 122.02C171.4 122.13 170.58 122.3 168.44 122.3C168 122.3 167.56 122.3 167.12 122.29C166.63 122.29 166.15 122.28 165.68 122.28H165.66C162.83 122.28 156.24 122.29 152.37 127.8C149.33 132.12 148.82 136.97 150.96 141.46C152.38 144.44 154.65 146.62 156.65 148.53C157.51 149.35 158.88 150.67 159.37 151.42C159.32 151.53 159.25 151.67 159.15 151.84C157.96 153.29 153.3 157.96 151.85 159.16C151.6 159.3 151.41 159.4 151.28 159.45C150.55 158.95 149.29 157.57 148.5 156.7C145.8 153.74 142.11 149.69 136.21 149.69C135.42 149.69 134.61 149.77 133.82 149.93C128.78 150.94 125.09 153.97 123.42 158.45C122.27 161.53 122.3 164.61 122.32 167.34C122.33 168.5 122.35 171.11 122.02 171.8C121.27 172.13 119.19 172.69 116.29 172.69C113.39 172.69 111.25 172.12 110.31 171.69C110.25 170.89 110.3 169.66 110.33 168.76C110.44 165.75 110.57 162 108.95 158.33C107.47 154.99 104.08 150.76 96.33 149.59L92.85 149.07L90.11 151.28C88.37 152.69 86.82 154.28 85.45 155.68C84.13 157.03 81.95 159.28 80.99 159.58C80.84 159.54 80.46 159.41 79.88 159.05C78.4 158.02 74.59 153.95 73.36 152.03C73.31 150.4 74.02 149.56 76.43 147.27C78.93 144.89 83.59 140.45 82.25 133.55C81.35 128.92 78.62 125.42 74.57 123.68C71.67 122.43 68.69 122.33 66.12 122.33H65.22H64.38C62.21 122.33 61.31 122.19 60.96 122.05C60.17 119.68 60.11 113.26 60.77 110.34C61.05 110.31 61.43 110.29 61.95 110.29C62.63 110.29 63.38 110.32 64.17 110.36C65.06 110.4 65.99 110.44 66.95 110.44C74.03 110.44 78.8 107.68 81.14 102.24C85.74 91.52 77.88 85.42 74.92 83.12C74.4 82.72 73.65 82.14 73.3 81.79C73.09 80.93 73.51 79.53 74.43 78.12C76.45 75 79.79 73.13 81.85 73.13C81.87 73.13 81.89 73.13 81.9 73.13C82.3 73.56 82.82 74.19 83.21 74.66C85.63 77.57 89.68 82.45 96.27 82.45C99.35 82.45 102.38 81.35 105.25 79.19C110.55 75.21 110.51 68.89 110.48 64.27C110.48 63.11 110.46 61.35 110.61 60.27C111.49 60.18 113.38 60.06 116.01 60.06M115.99 52.08C113.24 52.08 110.49 52.2 109.02 52.42C97.89 54.16 105.56 68.94 100.43 72.8C98.86 73.98 97.49 74.46 96.26 74.46C91.29 74.46 88.59 66.7 84.82 65.57C83.85 65.28 82.85 65.14 81.84 65.14C72.49 65.14 62.19 76.74 66.09 85.34C68.21 90.02 77.12 91.33 73.79 99.1C72.56 101.96 69.96 102.46 66.95 102.46C65.35 102.46 63.63 102.32 61.95 102.32C59.15 102.32 56.45 102.72 54.57 104.84C51.56 108.24 51.69 122.51 54.13 126.32C56.55 130.1 60.55 130.36 64.38 130.36C64.97 130.36 65.55 130.36 66.13 130.36C70.08 130.36 73.53 130.64 74.4 135.11C75.58 141.16 64.02 142.63 65.51 153.91C65.88 156.71 73.08 164.23 75.59 165.82C77.6 167.09 79.39 167.62 81.03 167.62C86.7 167.62 90.5 161.29 95.15 157.53C106.4 159.22 100.48 169.32 103.01 175.35C104.57 179.07 110.54 180.71 116.3 180.71C120.9 180.71 125.37 179.67 127.38 177.82C134 171.7 125.94 159.71 135.42 157.8C135.69 157.74 135.96 157.72 136.22 157.72C141.31 157.72 144.42 167.56 151.16 167.56C152.68 167.56 154.38 167.06 156.33 165.83C157.72 164.96 164.93 157.73 165.81 156.33C173.33 144.4 152.5 141.56 158.93 132.43C160.27 130.53 162.81 130.31 165.7 130.31C166.6 130.31 167.53 130.33 168.46 130.33C172.12 130.33 175.88 130 178.2 126.76C181.47 122.2 181.24 109.15 177.35 104.85C175.4 102.7 172.56 102.36 169.65 102.36C168.33 102.36 167 102.43 165.73 102.43C162.02 102.43 158.78 101.86 157.81 97.38C156.45 91.13 167.29 88.68 167.39 80.91C167.46 75.27 157.3 64.93 151.73 64.74C151.62 64.74 151.51 64.74 151.4 64.74C143.67 64.74 141.54 74.21 135.7 74.21C134.27 74.21 132.61 73.64 130.6 72.22C130.21 65.44 132.24 53.92 122.89 52.44C121.44 52.21 118.72 52.1 116 52.1L115.99 52.08Z" fill="#3A3A3A"/>
<path d="M116.38 132.61C125.261 132.61 132.46 125.411 132.46 116.53C132.46 107.649 125.261 100.45 116.38 100.45C107.499 100.45 100.3 107.649 100.3 116.53C100.3 125.411 107.499 132.61 116.38 132.61Z" fill="white"/>
<path d="M120.57 101.5C122.07 99.13 126.66 101.21 128.46 102.83C132.92 106.83 135.11 113.76 134.16 119.63C133.42 124.2 126.65 135.67 121.36 131.93C116.79 128.7 124.7 123.45 125.66 121.11C130.06 110.33 117.44 106.44 120.56 101.5H120.57Z" fill="#3A3A3A"/>
<path d="M101.85 104.7C106.73 97.71 115.11 100.6 111.52 105.91C107.93 111.22 102.6 113.28 106.7 121.64C107.85 123.98 116.56 130.32 109.74 132.22C99.33 135.11 95.67 113.56 101.85 104.71V104.7Z" fill="#3A3A3A"/>
<path d="M116.38 5.5C55.14 5.5 5.49 55.15 5.49 116.39C5.49 177.63 55.14 227.28 116.38 227.28C177.62 227.28 227.27 177.63 227.27 116.39C227.27 55.15 177.62 5.5 116.38 5.5ZM116.38 199.27C70.68 199.27 33.49 162.09 33.49 116.39C33.49 70.69 70.67 33.5 116.38 33.5C162.09 33.5 199.27 70.68 199.27 116.39C199.27 162.1 162.09 199.27 116.38 199.27Z" fill="#B5B5B6" stroke="#3D3938" stroke-width="11" stroke-miterlimit="10"/>
</svg>
