<svg width="195" height="180" viewBox="0 0 195 180" fill="none" xmlns="http://www.w3.org/2000/svg">
<path d="M152.23 75.77L156.4 73.14L184.78 31.56L178.62 13.08L140.89 27.29L121.59 58.85C113.99 56.57 105.93 55.32 97.59 55.32C88.54 55.32 79.83 56.78 71.67 59.45L52 27.29L14.27 13.08L8.10999 31.56L36.49 73.14L41.99 76.6C24.98 91.86 14.27 113.99 14.27 138.64C14.27 153.48 18.17 167.4 24.97 179.47C24.75 177.18 24.63 174.86 24.63 172.51C24.63 132.21 57.3 99.54 97.6 99.54C137.9 99.54 170.57 132.21 170.57 172.51C170.57 174.86 170.45 177.18 170.23 179.47C177.03 167.4 180.93 153.48 180.93 138.64C180.93 113.53 169.81 91.04 152.25 75.76L152.23 75.77Z" fill="#FEC200"/>
<path d="M160.85 80.82C163.98 82.62 166.98 86.93 169.08 90.07C182.69 110.48 186.88 134.23 181.36 158.17C179.63 165.68 176.48 179.69 166.31 178.69C156.27 177.7 159.33 165.95 158.66 159.5C152.32 98.26 69.04 82.58 42.3 139.11C36.54 151.3 37.94 157.11 36.67 169.48C35.62 179.73 24.24 182.42 18.8 172.36C11.42 158.72 10.07 135.74 12.92 120.72C13.94 115.34 20.57 94.88 26.23 93.97C40.68 91.65 29.78 109.3 27.96 114.77C24.63 124.78 23.05 137.64 24.69 147.98L34.03 126.83C64.11 77.78 137.27 79.98 163.39 131.77C165.89 136.73 166.88 143.25 170.67 146.98C171.42 129.43 168.1 111.66 158.12 97.04C155.37 93.01 142.83 81.61 142.73 78.48C142.59 74.39 156.06 65.02 159.34 61.62C163.97 56.82 168 51.01 171.73 45.47C171.74 43.19 156.67 28.76 152.42 30.1C149.69 30.85 137.3 46.75 135.26 50.03C132.99 53.7 128 67.02 125.46 68.22C121.01 70.31 115.08 66.82 110.06 66.1C100.81 64.78 92.68 64.67 83.44 66.2C79.65 66.83 76.67 69.48 72.29 68.94C66.43 68.21 62.21 54.62 58.87 49.29C57.22 46.66 54.62 42.84 52.68 40.48C50.74 38.12 42.92 29.7 40.43 30.08C36.84 30.63 23.48 41.79 23.68 45.37C24.1 52.96 45.22 69.8 50.95 75.2C53.7 80.32 48.6 85.89 43.25 84.96C41.15 84.6 27.6 71.58 25.19 68.97C14.79 57.69 3.15001 38.56 0.940012 23.22C-2.66999 -1.82 8.46001 -3.16 28.69 5.47C47.52 13.51 61.41 29.05 72.34 45.82C73.91 48.23 74.62 52.91 77.41 53.76C81.09 54.88 95.8 51.52 102.25 51.91C106.53 52.17 116.28 55.6 119.23 52.96C120.06 52.21 121.26 48.58 122.29 47.03C133.28 30.49 145.4 15.21 164.02 6.76001C172.52 2.91001 192.96 -5.42001 194.73 9.42999C196.75 26.36 186.82 48.19 176.69 61.43C173.33 65.82 163.02 74.62 161.21 77.96C160.73 78.85 160.31 79.87 160.89 80.79L160.85 80.82Z" fill="black"/>
</svg>
