<svg width="163" height="195" viewBox="0 0 163 195" fill="none" xmlns="http://www.w3.org/2000/svg">
<path d="M140.8 40.29V8.51999H8.21997V40.29V61.32V186.73H154.66V40.29H140.8Z" fill="white"/>
<path d="M154.66 40.29H8.21997V111.48H154.66V40.29Z" fill="#FF0000"/>
<path d="M81.11 135.59C94.42 135.59 105.21 124.8 105.21 111.49C105.21 98.1799 94.42 87.39 81.11 87.39C67.7999 87.39 57.01 98.1799 57.01 111.49C57.01 124.8 67.7999 135.59 81.11 135.59Z" fill="white"/>
<path d="M148.56 32.34C148.36 31.94 148.14 31.25 148.14 30.29V18.52C148.14 8.59999 140.06 0.519989 130.14 0.519989H18.22C8.29997 0.519989 0.219971 8.59999 0.219971 18.52V176.73C0.219971 186.65 8.29997 194.73 18.22 194.73H144.66C154.58 194.73 162.66 186.65 162.66 176.73V50.29C162.66 40.66 156.56 33.02 148.56 32.34ZM12.09 22.71C12.09 17.06 16.67 12.48 22.32 12.48H132.14V30.29C132.14 31.32 132.22 32.31 132.36 33.29H23.9C22.34 33.29 21.11 33.06 20.14 32.7C15.54 31.7 12.1 27.61 12.1 22.71H12.09ZM146.66 103.49H126.94C122.52 103.49 118.94 107.07 118.94 111.49C118.94 115.91 122.52 119.49 126.94 119.49H146.66V176.73C146.66 177.81 145.74 178.73 144.66 178.73H18.22C17.14 178.73 16.22 177.81 16.22 176.73V119.49H35.85C40.27 119.49 43.85 115.91 43.85 111.49C43.85 107.07 40.27 103.49 35.85 103.49H16.22V46.16C18.48 46.88 21.02 47.29 23.89 47.29H142.32C143.56 47.79 144.87 48.12 146.24 48.24C146.44 48.64 146.66 49.33 146.66 50.29V103.48V103.49Z" fill="black"/>
<path d="M81.39 85.38C66.99 85.38 55.28 97.09 55.28 111.49C55.28 125.89 66.99 137.6 81.39 137.6C95.79 137.6 107.5 125.89 107.5 111.49C107.5 97.09 95.79 85.38 81.39 85.38ZM81.39 129.6C71.4 129.6 63.28 121.48 63.28 111.49C63.28 101.5 71.4 93.38 81.39 93.38C91.38 93.38 99.5 101.5 99.5 111.49C99.5 121.48 91.38 129.6 81.39 129.6Z" fill="black"/>
<path d="M81.44 99.46C74.81 99.46 69.41 104.85 69.41 111.49C69.41 118.13 74.8 123.52 81.44 123.52C88.08 123.52 93.47 118.13 93.47 111.49C93.47 104.85 88.08 99.46 81.44 99.46ZM81.44 118.51C77.57 118.51 74.41 115.36 74.41 111.48C74.41 107.6 77.56 104.45 81.44 104.45C85.32 104.45 88.47 107.6 88.47 111.48C88.47 115.36 85.32 118.51 81.44 118.51Z" fill="black"/>
</svg>
