<svg width="144" height="187" viewBox="0 0 144 187" fill="none" xmlns="http://www.w3.org/2000/svg">
<path d="M67 129.43L118.04 108.81L139.18 161.13L105.06 150.16L88.14 181.75L67 129.43Z" fill="black" stroke="black" stroke-width="9" stroke-linejoin="round"/>
<mask id="mask0_1_132" style="mask-type:luminance" maskUnits="userSpaceOnUse" x="67" y="108" width="73" height="74">
<path d="M67 129.43L118.04 108.81L139.18 161.13L104.69 149.23L88.14 181.75L67 129.43Z" fill="white"/>
</mask>
<g mask="url(#mask0_1_132)">
<path d="M120.63 115.217L69.5889 135.839L92.4998 192.546L143.541 171.924L120.63 115.217Z" fill="#0B42EF"/>
<path d="M106.398 120.967L83.8304 130.085L106.741 186.792L129.309 177.674L106.398 120.967Z" fill="#0890FF"/>
</g>
<path d="M77.18 129.43L26.14 108.81L5 161.13L39.12 150.16L56.04 181.75L77.18 129.43Z" fill="black" stroke="black" stroke-width="9" stroke-linejoin="round"/>
<mask id="mask1_1_132" style="mask-type:luminance" maskUnits="userSpaceOnUse" x="5" y="108" width="73" height="74">
<path d="M77.18 129.43L26.14 108.81L5 161.13L39.5 149.23L56.04 181.75L77.18 129.43Z" fill="white"/>
</mask>
<g mask="url(#mask1_1_132)">
<path d="M23.5429 115.229L0.631927 171.936L51.6734 192.558L74.5843 135.851L23.5429 115.229Z" fill="#0B42EF"/>
<path d="M37.7751 120.979L14.8642 177.686L37.4318 186.804L60.3428 130.097L37.7751 120.979Z" fill="#0890FF"/>
</g>
<path d="M71.64 149.59C101.872 149.59 126.38 125.082 126.38 94.85C126.38 64.6179 101.872 40.11 71.64 40.11C41.4079 40.11 16.9 64.6179 16.9 94.85C16.9 125.082 41.4079 149.59 71.64 149.59Z" fill="white" stroke="black" stroke-width="7" stroke-miterlimit="10"/>
<mask id="mask2_1_132" style="mask-type:luminance" maskUnits="userSpaceOnUse" x="16" y="40" width="111" height="110">
<path d="M71.64 149.59C101.872 149.59 126.38 125.082 126.38 94.85C126.38 64.6179 101.872 40.11 71.64 40.11C41.4079 40.11 16.9 64.6179 16.9 94.85C16.9 125.082 41.4079 149.59 71.64 149.59Z" fill="white"/>
</mask>
<g mask="url(#mask2_1_132)">
<path d="M65.7053 80.0662L15.3089 96.441L24.0108 123.223L74.4073 106.848L65.7053 80.0662Z" fill="#1B44CC"/>
<path d="M65.7053 80.0662L15.3089 96.441L24.0108 123.223L74.4073 106.848L65.7053 80.0662Z" stroke="black" stroke-width="4" stroke-miterlimit="10"/>
<path d="M51.024 40.0902L28.2421 56.6422L59.3889 99.512L82.1708 82.96L51.024 40.0902Z" fill="#1B44CC"/>
<path d="M51.024 40.0902L28.2421 56.6422L59.3889 99.512L82.1708 82.96L51.024 40.0902Z" stroke="black" stroke-width="4" stroke-miterlimit="10"/>
<path d="M92.884 40.0779L61.7373 82.9477L84.5192 99.4997L115.666 56.6299L92.884 40.0779Z" fill="#1B44CC"/>
<path d="M92.884 40.0779L61.7373 82.9477L84.5192 99.4997L115.666 56.6299L92.884 40.0779Z" stroke="black" stroke-width="4" stroke-miterlimit="10"/>
<path d="M78.2041 80.0782L69.5022 106.86L119.899 123.235L128.601 96.453L78.2041 80.0782Z" fill="#1B44CC"/>
<path d="M78.2041 80.0782L69.5022 106.86L119.899 123.235L128.601 96.453L78.2041 80.0782Z" stroke="black" stroke-width="4" stroke-miterlimit="10"/>
<path d="M86.03 94.85H57.87V147.84H86.03V94.85Z" fill="#1B44CC"/>
<path d="M86.03 94.85H57.87V147.84H86.03V94.85Z" stroke="black" stroke-width="4" stroke-miterlimit="10"/>
</g>
<path d="M71.04 137.45C94.3299 137.45 113.21 118.57 113.21 95.28C113.21 71.9902 94.3299 53.11 71.04 53.11C47.7502 53.11 28.87 71.9902 28.87 95.28C28.87 118.57 47.7502 137.45 71.04 137.45Z" fill="#048EFF" stroke="black" stroke-width="4" stroke-miterlimit="10"/>
<path d="M71.02 126.94C88.3783 126.94 102.45 112.868 102.45 95.51C102.45 78.1517 88.3783 64.08 71.02 64.08C53.6617 64.08 39.59 78.1517 39.59 95.51C39.59 112.868 53.6617 126.94 71.02 126.94Z" stroke="#1041EF" stroke-width="4" stroke-miterlimit="10"/>
<path d="M72.64 68.85L75.71 78.29H85.64L77.61 84.13L80.68 93.57L72.64 87.73L64.61 93.57L67.68 84.13L59.65 78.29H69.58L72.64 68.85Z" fill="#1041EF"/>
<path d="M86.64 88.85L89.71 98.29H99.64L91.61 104.13L94.68 113.57L86.64 107.73L78.61 113.57L81.68 104.13L73.65 98.29H83.58L86.64 88.85Z" fill="#1041EF"/>
<path d="M57.64 88.85L60.71 98.29H70.64L62.61 104.13L65.68 113.57L57.64 107.73L49.61 113.57L52.68 104.13L44.65 98.29H54.58L57.64 88.85Z" fill="#1041EF"/>
</svg>
