<svg width="144" height="184" viewBox="0 0 144 184" fill="none" xmlns="http://www.w3.org/2000/svg">
<path d="M67 127.06L118.05 106.44L139.19 158.76L105.07 147.79L88.14 179.38L67 127.06Z" fill="black" stroke="black" stroke-width="9" stroke-linejoin="round"/>
<mask id="mask0_1_131" style="mask-type:luminance" maskUnits="userSpaceOnUse" x="67" y="106" width="73" height="74">
<path d="M67 127.06L118.05 106.44L139.19 158.76L104.69 146.86L88.14 179.38L67 127.06Z" fill="white"/>
</mask>
<g mask="url(#mask0_1_131)">
<path d="M120.629 112.846L69.5873 133.468L92.4983 190.174L143.54 169.552L120.629 112.846Z" fill="#138712"/>
<path d="M106.397 118.596L83.8289 127.714L106.74 184.42L129.307 175.303L106.397 118.596Z" fill="#4EC532"/>
</g>
<path d="M77.19 127.06L26.14 106.44L5 158.76L39.12 147.79L56.05 179.38L77.19 127.06Z" fill="black" stroke="black" stroke-width="9" stroke-linejoin="round"/>
<mask id="mask1_1_131" style="mask-type:luminance" maskUnits="userSpaceOnUse" x="5" y="106" width="73" height="74">
<path d="M77.19 127.06L26.14 106.44L5 158.76L39.5 146.86L56.05 179.38L77.19 127.06Z" fill="white"/>
</mask>
<g mask="url(#mask1_1_131)">
<path d="M23.5579 112.851L0.646912 169.558L51.6884 190.18L74.5993 133.473L23.5579 112.851Z" fill="#138712"/>
<path d="M37.7901 118.601L14.8792 175.308L37.4468 184.426L60.3578 127.719L37.7901 118.601Z" fill="#4EC532"/>
</g>
<path d="M71.65 143.04C97.8946 143.04 119.17 121.765 119.17 95.52C119.17 69.2754 97.8946 48 71.65 48C45.4054 48 24.13 69.2754 24.13 95.52C24.13 121.765 45.4054 143.04 71.65 143.04Z" fill="#4EC531" stroke="black" stroke-width="6" stroke-miterlimit="10"/>
<path d="M71.02 127.57C88.3783 127.57 102.45 113.498 102.45 96.14C102.45 78.7817 88.3783 64.71 71.02 64.71C53.6617 64.71 39.59 78.7817 39.59 96.14C39.59 113.498 53.6617 127.57 71.02 127.57Z" stroke="#0C850B" stroke-width="4" stroke-miterlimit="10"/>
<path d="M85.65 82.48L88.72 91.92H98.65L90.61 97.76L93.68 107.2L85.65 101.36L77.61 107.2L80.68 97.76L72.65 91.92H82.58L85.65 82.48Z" fill="#138712"/>
<path d="M57.65 82.48L60.72 91.92H70.65L62.61 97.76L65.68 107.2L57.65 101.36L49.61 107.2L52.68 97.76L44.65 91.92H54.58L57.65 82.48Z" fill="#138712"/>
</svg>
